<?xml version="1.0" encoding="UTF-8"?>
<svg id="Layer_1" xmlns="http://www.w3.org/2000/svg" xmlns:xlink="http://www.w3.org/1999/xlink" version="1.1" viewBox="0 0 1400 1000">
  <!-- Generator: Adobe Illustrator 30.3.0, SVG Export Plug-In . SVG Version: 2.1.3 Build 182)  -->
  <defs>
    <style>
      .st0 {
        mask: url(#mask);
      }

      .st1 {
        stroke: #7a4f00;
        stroke-width: 2px;
      }

      .st1, .st2, .st3, .st4, .st5, .st6, .st7, .st8, .st9, .st10, .st11, .st12 {
        fill: none;
      }

      .st2 {
        stroke: url(#linear-gradient2);
      }

      .st2, .st3, .st4, .st5, .st7, .st8, .st9 {
        stroke-linecap: round;
      }

      .st2, .st3, .st5, .st7, .st8 {
        stroke-width: 8px;
      }

      .st2, .st5 {
        opacity: .7;
      }

      .st2, .st5, .st13, .st6, .st7, .st8, .st10 {
        isolation: isolate;
      }

      .st3 {
        stroke: #7d1a2d;
      }

      .st4 {
        stroke: url(#linear-gradient8);
      }

      .st4, .st9 {
        stroke-linejoin: round;
        stroke-width: 22px;
      }

      .st5 {
        stroke: url(#linear-gradient10);
      }

      .st14 {
        fill: #7d1a2d;
      }

      .st15 {
        fill: #1f2937;
      }

      .st16 {
        mask: url(#mask-2);
      }

      .st17 {
        mask: url(#mask-1);
      }

      .st6 {
        stroke: url(#linear-gradient15);
      }

      .st6, .st7, .st8, .st10 {
        opacity: .95;
      }

      .st6, .st10 {
        stroke-width: 8px;
      }

      .st6, .st10, .st11, .st12 {
        stroke-miterlimit: 4;
      }

      .st18 {
        fill: #fff;
      }

      .st19 {
        fill: url(#linear-gradient4);
      }

      .st19, .st20, .st21, .st22, .st23, .st24 {
        stroke: #8b5e0a;
        stroke-width: 3px;
      }

      .st20 {
        fill: url(#linear-gradient3);
      }

      .st21 {
        fill: url(#linear-gradient5);
      }

      .st7 {
        stroke: url(#linear-gradient9);
      }

      .st8 {
        stroke: url(#linear-gradient1);
      }

      .st9 {
        stroke: url(#linear-gradient);
      }

      .st10 {
        stroke: url(#linear-gradient7);
      }

      .st22 {
        fill: url(#linear-gradient11);
      }

      .st23 {
        fill: url(#linear-gradient12);
      }

      .st24 {
        fill: url(#linear-gradient13);
      }

      .st25 {
        display: none;
      }

      .st11 {
        stroke: url(#linear-gradient6);
      }

      .st11, .st12 {
        stroke-width: 26px;
      }

      .st12 {
        stroke: url(#linear-gradient14);
      }
    </style>
    <linearGradient id="linear-gradient" x1="1989.71" y1="573.97" x2="1990.71" y2="572.97" gradientTransform="translate(-1481868.21 662884.64) rotate(-8) scale(784 -784)" gradientUnits="userSpaceOnUse">
      <stop offset="0" stop-color="#f4d06f"/>
      <stop offset=".28" stop-color="#c9972b"/>
      <stop offset=".55" stop-color="#a87012"/>
      <stop offset=".78" stop-color="#e7bd55"/>
      <stop offset="1" stop-color="#8b5e0a"/>
    </linearGradient>
    <linearGradient id="linear-gradient1" x1="1989.44" y1="574.21" x2="1990.44" y2="573.21" gradientTransform="translate(-1322808.11 592052.41) rotate(-8) scale(700 -700)" gradientUnits="userSpaceOnUse">
      <stop offset="0" stop-color="#f4d06f"/>
      <stop offset=".28" stop-color="#c9972b"/>
      <stop offset=".55" stop-color="#a87012"/>
      <stop offset=".78" stop-color="#e7bd55"/>
      <stop offset="1" stop-color="#8b5e0a"/>
    </linearGradient>
    <linearGradient id="linear-gradient2" x1="1989.15" y1="574.46" x2="1990.15" y2="573.46" gradientTransform="translate(-1190258.15 533025.56) rotate(-8) scale(630 -630)" gradientUnits="userSpaceOnUse">
      <stop offset="0" stop-color="#f4d06f"/>
      <stop offset=".28" stop-color="#c9972b"/>
      <stop offset=".55" stop-color="#a87012"/>
      <stop offset=".78" stop-color="#e7bd55"/>
      <stop offset="1" stop-color="#8b5e0a"/>
    </linearGradient>
    <linearGradient id="linear-gradient3" x1="1974.7" y1="587.75" x2="1975.7" y2="586.75" gradientTransform="translate(-194763.15 86437.29) rotate(-8) scale(104 -98)" gradientUnits="userSpaceOnUse">
      <stop offset="0" stop-color="#f4d06f"/>
      <stop offset=".28" stop-color="#c9972b"/>
      <stop offset=".55" stop-color="#a87012"/>
      <stop offset=".78" stop-color="#e7bd55"/>
      <stop offset="1" stop-color="#8b5e0a"/>
    </linearGradient>
    <linearGradient id="linear-gradient4" x1="1981.15" y1="581.94" x2="1982.15" y2="580.94" gradientTransform="translate(-312468.14 135875.78) rotate(-8) scale(166 -155)" gradientUnits="userSpaceOnUse">
      <stop offset="0" stop-color="#f4d06f"/>
      <stop offset=".28" stop-color="#c9972b"/>
      <stop offset=".55" stop-color="#a87012"/>
      <stop offset=".78" stop-color="#e7bd55"/>
      <stop offset="1" stop-color="#8b5e0a"/>
    </linearGradient>
    <linearGradient id="linear-gradient5" x1="1974.7" y1="587.75" x2="1975.7" y2="586.75" gradientTransform="translate(-194575.01 86410.85) rotate(-8) scale(104 -98)" gradientUnits="userSpaceOnUse">
      <stop offset="0" stop-color="#f4d06f"/>
      <stop offset=".28" stop-color="#c9972b"/>
      <stop offset=".55" stop-color="#a87012"/>
      <stop offset=".78" stop-color="#e7bd55"/>
      <stop offset="1" stop-color="#8b5e0a"/>
    </linearGradient>
    <linearGradient id="linear-gradient6" x1="1990.46" y1="578.56" x2="1991.46" y2="577.56" gradientTransform="translate(-2209258.33 145053.99) scale(1110 -250)" gradientUnits="userSpaceOnUse">
      <stop offset="0" stop-color="#f4d06f"/>
      <stop offset=".28" stop-color="#c9972b"/>
      <stop offset=".55" stop-color="#a87012"/>
      <stop offset=".78" stop-color="#e7bd55"/>
      <stop offset="1" stop-color="#8b5e0a"/>
    </linearGradient>
    <linearGradient id="linear-gradient7" x1="1990.35" y1="581.42" x2="1991.35" y2="580.42" gradientTransform="translate(-2057828.33 101619.99) scale(1034 -174)" gradientUnits="userSpaceOnUse">
      <stop offset="0" stop-color="#f4d06f"/>
      <stop offset=".28" stop-color="#c9972b"/>
      <stop offset=".55" stop-color="#a87012"/>
      <stop offset=".78" stop-color="#e7bd55"/>
      <stop offset="1" stop-color="#8b5e0a"/>
    </linearGradient>
    <mask id="mask" x="0" y="0" width="1400" height="1000" maskUnits="userSpaceOnUse">
      <g id="ringMask">
        <rect class="st18" width="1400" height="1000"/>
        <rect x="151.15" y="413.5" width="1110" height="250" rx="38" ry="38" transform="translate(-89.78 144.63) rotate(-11)"/>
      </g>
    </mask>
    <linearGradient id="linear-gradient8" x1="1989.71" y1="573.97" x2="1990.71" y2="572.97" gradientTransform="translate(-1481868.21 662884.64) rotate(-8) scale(784 -784)" gradientUnits="userSpaceOnUse">
      <stop offset="0" stop-color="#f4d06f"/>
      <stop offset=".28" stop-color="#c9972b"/>
      <stop offset=".55" stop-color="#a87012"/>
      <stop offset=".78" stop-color="#e7bd55"/>
      <stop offset="1" stop-color="#8b5e0a"/>
    </linearGradient>
    <mask id="mask-1" x="0" y="0" width="1400" height="1000" maskUnits="userSpaceOnUse">
      <g id="ringMask1" data-name="ringMask">
        <rect class="st18" width="1400" height="1000"/>
        <rect x="151.15" y="413.5" width="1110" height="250" rx="38" ry="38" transform="translate(-89.78 144.63) rotate(-11)"/>
      </g>
    </mask>
    <linearGradient id="linear-gradient9" x1="1989.44" y1="574.21" x2="1990.44" y2="573.21" gradientTransform="translate(-1322808.11 592052.41) rotate(-8) scale(700 -700)" gradientUnits="userSpaceOnUse">
      <stop offset="0" stop-color="#f4d06f"/>
      <stop offset=".28" stop-color="#c9972b"/>
      <stop offset=".55" stop-color="#a87012"/>
      <stop offset=".78" stop-color="#e7bd55"/>
      <stop offset="1" stop-color="#8b5e0a"/>
    </linearGradient>
    <mask id="mask-2" x="0" y="0" width="1400" height="1000" maskUnits="userSpaceOnUse">
      <g id="ringMask2" data-name="ringMask">
        <rect class="st18" width="1400" height="1000"/>
        <rect x="151.15" y="413.5" width="1110" height="250" rx="38" ry="38" transform="translate(-89.78 144.63) rotate(-11)"/>
      </g>
    </mask>
    <linearGradient id="linear-gradient10" x1="1989.15" y1="574.46" x2="1990.15" y2="573.46" gradientTransform="translate(-1190258.15 533025.56) rotate(-8) scale(630 -630)" gradientUnits="userSpaceOnUse">
      <stop offset="0" stop-color="#f4d06f"/>
      <stop offset=".28" stop-color="#c9972b"/>
      <stop offset=".55" stop-color="#a87012"/>
      <stop offset=".78" stop-color="#e7bd55"/>
      <stop offset="1" stop-color="#8b5e0a"/>
    </linearGradient>
    <linearGradient id="linear-gradient11" x1="1974.7" y1="587.75" x2="1975.7" y2="586.75" gradientTransform="translate(-194763.15 86437.29) rotate(-8) scale(104 -98)" gradientUnits="userSpaceOnUse">
      <stop offset="0" stop-color="#f4d06f"/>
      <stop offset=".28" stop-color="#c9972b"/>
      <stop offset=".55" stop-color="#a87012"/>
      <stop offset=".78" stop-color="#e7bd55"/>
      <stop offset="1" stop-color="#8b5e0a"/>
    </linearGradient>
    <linearGradient id="linear-gradient12" x1="1981.15" y1="581.94" x2="1982.15" y2="580.94" gradientTransform="translate(-312468.14 135875.78) rotate(-8) scale(166 -155)" gradientUnits="userSpaceOnUse">
      <stop offset="0" stop-color="#f4d06f"/>
      <stop offset=".28" stop-color="#c9972b"/>
      <stop offset=".55" stop-color="#a87012"/>
      <stop offset=".78" stop-color="#e7bd55"/>
      <stop offset="1" stop-color="#8b5e0a"/>
    </linearGradient>
    <linearGradient id="linear-gradient13" x1="1974.7" y1="587.75" x2="1975.7" y2="586.75" gradientTransform="translate(-194575.01 86410.85) rotate(-8) scale(104 -98)" gradientUnits="userSpaceOnUse">
      <stop offset="0" stop-color="#f4d06f"/>
      <stop offset=".28" stop-color="#c9972b"/>
      <stop offset=".55" stop-color="#a87012"/>
      <stop offset=".78" stop-color="#e7bd55"/>
      <stop offset="1" stop-color="#8b5e0a"/>
    </linearGradient>
    <linearGradient id="linear-gradient14" x1="1990.46" y1="578.56" x2="1991.46" y2="577.56" gradientTransform="translate(-2209258.33 145053.99) scale(1110 -250)" gradientUnits="userSpaceOnUse">
      <stop offset="0" stop-color="#f4d06f"/>
      <stop offset=".28" stop-color="#c9972b"/>
      <stop offset=".55" stop-color="#a87012"/>
      <stop offset=".78" stop-color="#e7bd55"/>
      <stop offset="1" stop-color="#8b5e0a"/>
    </linearGradient>
    <linearGradient id="linear-gradient15" x1="1990.35" y1="581.42" x2="1991.35" y2="580.42" gradientTransform="translate(-2057828.33 101619.99) scale(1034 -174)" gradientUnits="userSpaceOnUse">
      <stop offset="0" stop-color="#f4d06f"/>
      <stop offset=".28" stop-color="#c9972b"/>
      <stop offset=".55" stop-color="#a87012"/>
      <stop offset=".78" stop-color="#e7bd55"/>
      <stop offset="1" stop-color="#8b5e0a"/>
    </linearGradient>
  </defs>
  <g id="Original_Art" class="st25">
    <circle class="st9" cx="700" cy="500" r="392"/>
    <circle class="st8" cx="700" cy="500" r="350"/>
    <circle class="st2" cx="700" cy="500" r="315"/>
    <g class="st13">
      <g class="st13">
        <path class="st14" d="M419.22,447.42l-8.25-41.9,9.76-1.92,22.96,25.07-5.15,1.01,11.27-31.81,9.76-1.92,8.37,41.87-10.89,2.14-5.1-25.29,1.85-.37-8.46,23.67-5.27,1.04-17.16-18.63,2.27-.45,4.98,25.32-10.95,2.16h.01Z"/>
      </g>
      <g class="st13">
        <path class="st14" d="M485.03,434.47l10.25-45.54,11.67-2.3,26.8,38.24-12.33,2.43-21.59-33.24,4.67-.92-7.38,38.94-12.09,2.38h0ZM493.54,424.34l1.33-9.34,20.47-4.03,4.77,8.14-26.57,5.23h0Z"/>
      </g>
      <g class="st13">
        <path class="st14" d="M546.53,422.37l13.31-29.04,1.6,8.45-22.5-21.44,13.35-2.63,14.44,14-5.67,1.18,7.87-18.46,12.81-2.52-12.79,27.88-1.65-8.38,23.64,22.2-13.65,2.69-14.79-14.81,5.45-1.07-7.89,19.27-13.53,2.66v.02h0Z"/>
      </g>
      <g class="st13">
        <path class="st15" d="M639.84,404.01l-8.25-41.9,19.15-3.77c3.83-.75,7.25-.79,10.27-.09,3.02.69,5.51,2.05,7.49,4.09,1.97,2.04,3.28,4.65,3.9,7.84.62,3.15.4,6.03-.67,8.62s-2.86,4.77-5.4,6.53c-2.53,1.76-5.72,3.02-9.55,3.77l-12.57,2.47,4.29-6,3.17,16.1-11.85,2.33h.02,0ZM648.77,386.83l-6.34-4.41,11.85-2.33c2.47-.49,4.21-1.39,5.22-2.71,1-1.32,1.32-2.93.94-4.85-.38-1.95-1.29-3.35-2.72-4.19s-3.38-1.01-5.85-.53l-11.85,2.33,4.2-6.48,4.56,23.16h-.01ZM665.75,398.91l-13.42-13.21,12.63-2.49,13.48,13.2-12.69,2.5h0Z"/>
      </g>
      <g class="st13">
        <path class="st15" d="M707.79,381.12l21.91-4.31,1.8,9.16-33.64,6.62-8.25-41.9,32.86-6.47,1.8,9.16-21.13,4.16,4.64,23.58h.01ZM703.7,364.77l19.45-3.83,1.74,8.86-19.45,3.83-1.74-8.86Z"/>
      </g>
      <g class="st13">
        <path class="st15" d="M746.79,382.96l10.25-45.54,11.67-2.3,26.8,38.24-12.33,2.43-21.59-33.24,4.67-.92-7.38,38.94-12.09,2.38h0ZM755.31,372.83l1.33-9.34,20.47-4.03,4.77,8.14-26.57,5.23h0Z"/>
      </g>
      <g class="st13">
        <path class="st15" d="M812.6,370.01l-8.25-41.9,11.85-2.33,6.4,32.5,19.99-3.93,1.85,9.4-31.84,6.27h0Z"/>
      </g>
      <g class="st13">
        <path class="st15" d="M871.76,358.36l-6.4-32.5-12.87,2.53-1.85-9.4,37.53-7.39,1.85,9.4-12.81,2.52,6.4,32.5-11.85,2.33h0Z"/>
      </g>
      <g class="st13">
        <path class="st15" d="M925.18,347.85l-3.49-17.72,4.16,6.58-24.89-27.62,12.51-2.46,17.99,20.02-7.24,1.43,9.12-25.36,11.49-2.26-12.51,34.98,1.23-7.64,3.49,17.72-11.85,2.33h0Z"/>
      </g>
    </g>
    <g>
      <polygon class="st20" points="646.7 803.37 666.29 834.95 703.48 833.76 678.96 860.44 693.02 895.82 657.7 881.6 627.66 905.01 631.43 867.12 600.5 848.24 636.58 839.13 646.7 803.37"/>
      <polygon class="st19" points="736.88 762.42 768.02 811.57 827.28 809.3 788.01 853.19 809.95 908.68 754.28 886.2 706.96 923.15 712.75 863.77 662.9 832.4 720.49 818.25 736.88 762.42"/>
      <polygon class="st21" points="834.85 776.93 854.44 808.51 891.64 807.32 867.11 833.99 881.17 869.38 845.85 855.16 815.81 878.57 819.58 840.67 788.65 821.79 824.73 812.68 834.85 776.93"/>
    </g>
    <g>
      <rect class="st11" x="151.15" y="413.5" width="1110" height="250" rx="38" ry="38" transform="translate(-89.78 144.63) rotate(-11)"/>
      <rect class="st10" x="189.15" y="451.5" width="1034" height="174" rx="24" ry="24" transform="translate(-89.78 144.63) rotate(-11)"/>
      <g class="st13">
        <path class="st14" d="M204.81,578.52l87.28-16.97,4.37,22.5-54.64,10.62,3.26,16.75,50.69-9.85,4.18,21.5-50.69,9.85,4.04,20.78,56.22-10.93,4.64,23.87-88.86,17.27-20.49-105.4h0Z"/>
        <path class="st14" d="M311.83,557.72l35.88-6.97,24.96,28.8,11.85-35.95,35.52-6.9-22.88,57.42,46.46,47.38-36.59,7.11-27.4-29.82-14.23,37.91-36.38,7.07,25.68-62-42.86-44.05h0Z"/>
        <path class="st14" d="M518.59,582.14l30.22,3.08c-.36,8.38-2.08,15.65-5.16,21.82-3.08,6.17-7.41,11.21-12.99,15.13s-13.09,6.8-22.53,8.63c-11.46,2.23-21.14,2.38-29.05.46s-15.31-6.55-22.22-13.91c-6.9-7.36-11.62-17.58-14.17-30.65-3.39-17.43-1.36-31.74,6.1-42.9,7.45-11.17,19.66-18.4,36.63-21.7,13.28-2.58,24.24-1.92,32.88,1.96,8.64,3.89,15.89,11.04,21.74,21.44l-27.51,11.99c-1.63-3.01-3.14-5.16-4.53-6.43-2.31-2.14-4.91-3.62-7.8-4.45-2.9-.83-5.98-.93-9.24-.29-7.38,1.43-12.46,5.5-15.24,12.2-2.12,4.98-2.26,12.19-.42,21.62,2.27,11.68,5.6,19.34,9.99,22.99,4.39,3.64,9.79,4.84,16.22,3.59,6.23-1.21,10.6-3.88,13.11-7.99,2.51-4.12,3.83-9.65,3.98-16.59h-.01Z"/>
        <path class="st14" d="M558.65,509.74l32.57-6.33,15.44,79.45,50.83-9.88,5.04,25.95-83.4,16.21-20.49-105.4h.01Z"/>
        <path class="st14" d="M729.45,476.54l32.5-6.32,12.21,62.8c1.21,6.23,1.38,12.29.52,18.2-.86,5.91-2.97,11.34-6.31,16.29s-7.12,8.7-11.35,11.26c-5.87,3.58-13.24,6.23-22.11,7.95-5.13,1-10.79,1.73-17,2.18-6.2.46-11.55.02-16.04-1.32s-8.8-3.64-12.95-6.92c-4.14-3.27-7.24-6.87-9.3-10.79-3.32-6.31-5.48-12.06-6.48-17.23l-12.21-62.8,32.5-6.32,12.5,64.29c1.12,5.75,3.58,9.93,7.4,12.54s8.55,3.37,14.21,2.27c5.61-1.09,9.7-3.54,12.26-7.34,2.57-3.8,3.28-8.63,2.15-14.47l-12.5-64.29v.02h0Z"/>
        <path class="st14" d="M799.35,536.15l30.61-7.96c1.65,4.9,3.76,8.47,6.33,10.71,4.18,3.62,9.39,4.82,15.62,3.6,4.65-.9,8.02-2.69,10.11-5.36,2.09-2.67,2.86-5.44,2.3-8.32-.53-2.73-2.2-4.94-5.02-6.63s-8.77-2.65-17.87-2.87c-14.91-.43-25.92-2.72-33.04-6.86-7.17-4.13-11.55-10.31-13.16-18.56-1.05-5.42-.48-10.84,1.72-16.27,2.2-5.43,6.19-10.13,11.96-14.11,5.77-3.98,14.14-7.04,25.11-9.17,13.47-2.62,24.22-2.11,32.27,1.52,8.04,3.64,13.8,10.79,17.26,21.45l-30.35,7.76c-1.74-4.59-4.12-7.7-7.15-9.35s-6.85-2.03-11.45-1.13c-3.79.74-6.48,2.09-8.09,4.07-1.6,1.98-2.18,4.12-1.74,6.42.33,1.68,1.41,3.03,3.25,4.07,1.8,1.09,5.7,1.68,11.68,1.76,14.83.3,25.63,1.42,32.4,3.36,6.77,1.94,12.01,4.97,15.72,9.07,3.71,4.1,6.12,9.03,7.24,14.78,1.31,6.76.65,13.35-1.98,19.78-2.63,6.43-7.01,11.77-13.15,16.02s-14.31,7.37-24.52,9.36c-17.93,3.48-31.01,2.45-39.25-3.11s-13.86-13.57-16.83-24.04h.02Z"/>
        <path class="st14" d="M906.75,442.08l32.64-6.34,20.49,105.4-32.64,6.34-20.49-105.4h0Z"/>
        <path class="st14" d="M960.21,431.69l34.05-6.62,38.47,71.24,8.68-80.4,33.06-6.43-18.65,113.01-35.3,6.86-60.29-97.66h-.02Z"/>
        <path class="st14" d="M1092.83,405.91l87.28-16.97,4.38,22.5-54.64,10.62,3.26,16.75,50.69-9.85,4.18,21.5-50.69,9.85,4.04,20.78,56.22-10.93,4.64,23.87-88.86,17.27-20.49-105.4h-.01Z"/>
      </g>
      <g class="st13">
        <path class="st1" d="M204.81,578.52l87.28-16.97,4.37,22.5-54.64,10.62,3.26,16.75,50.69-9.85,4.18,21.5-50.69,9.85,4.04,20.78,56.22-10.93,4.64,23.87-88.86,17.27-20.49-105.4h0Z"/>
        <path class="st1" d="M311.83,557.72l35.88-6.97,24.96,28.8,11.85-35.95,35.52-6.9-22.88,57.42,46.46,47.38-36.59,7.11-27.4-29.82-14.23,37.91-36.38,7.07,25.68-62-42.86-44.05h0Z"/>
        <path class="st1" d="M518.59,582.14l30.22,3.08c-.36,8.38-2.08,15.65-5.16,21.82-3.08,6.17-7.41,11.21-12.99,15.13s-13.09,6.8-22.53,8.63c-11.46,2.23-21.14,2.38-29.05.46s-15.31-6.55-22.22-13.91c-6.9-7.36-11.62-17.58-14.17-30.65-3.39-17.43-1.36-31.74,6.1-42.9,7.45-11.17,19.66-18.4,36.63-21.7,13.28-2.58,24.24-1.92,32.88,1.96,8.64,3.89,15.89,11.04,21.74,21.44l-27.51,11.99c-1.63-3.01-3.14-5.16-4.53-6.43-2.31-2.14-4.91-3.62-7.8-4.45-2.9-.83-5.98-.93-9.24-.29-7.38,1.43-12.46,5.5-15.24,12.2-2.12,4.98-2.26,12.19-.42,21.62,2.27,11.68,5.6,19.34,9.99,22.99,4.39,3.64,9.79,4.84,16.22,3.59,6.23-1.21,10.6-3.88,13.11-7.99,2.51-4.12,3.83-9.65,3.98-16.59h-.01Z"/>
        <path class="st1" d="M558.65,509.74l32.57-6.33,15.44,79.45,50.83-9.88,5.04,25.95-83.4,16.21-20.49-105.4h.01Z"/>
        <path class="st1" d="M729.45,476.54l32.5-6.32,12.21,62.8c1.21,6.23,1.38,12.29.52,18.2-.86,5.91-2.97,11.34-6.31,16.29s-7.12,8.7-11.35,11.26c-5.87,3.58-13.24,6.23-22.11,7.95-5.13,1-10.79,1.73-17,2.18-6.2.46-11.55.02-16.04-1.32s-8.8-3.64-12.95-6.92c-4.14-3.27-7.24-6.87-9.3-10.79-3.32-6.31-5.48-12.06-6.48-17.23l-12.21-62.8,32.5-6.32,12.5,64.29c1.12,5.75,3.58,9.93,7.4,12.54s8.55,3.37,14.21,2.27c5.61-1.09,9.7-3.54,12.26-7.34,2.57-3.8,3.28-8.63,2.15-14.47l-12.5-64.29v.02h0Z"/>
        <path class="st1" d="M799.35,536.15l30.61-7.96c1.65,4.9,3.76,8.47,6.33,10.71,4.18,3.62,9.39,4.82,15.62,3.6,4.65-.9,8.02-2.69,10.11-5.36,2.09-2.67,2.86-5.44,2.3-8.32-.53-2.73-2.2-4.94-5.02-6.63s-8.77-2.65-17.87-2.87c-14.91-.43-25.92-2.72-33.04-6.86-7.17-4.13-11.55-10.31-13.16-18.56-1.05-5.42-.48-10.84,1.72-16.27,2.2-5.43,6.19-10.13,11.96-14.11,5.77-3.98,14.14-7.04,25.11-9.17,13.47-2.62,24.22-2.11,32.27,1.52,8.04,3.64,13.8,10.79,17.26,21.45l-30.35,7.76c-1.74-4.59-4.12-7.7-7.15-9.35s-6.85-2.03-11.45-1.13c-3.79.74-6.48,2.09-8.09,4.07-1.6,1.98-2.18,4.12-1.74,6.42.33,1.68,1.41,3.03,3.25,4.07,1.8,1.09,5.7,1.68,11.68,1.76,14.83.3,25.63,1.42,32.4,3.36,6.77,1.94,12.01,4.97,15.72,9.07,3.71,4.1,6.12,9.03,7.24,14.78,1.31,6.76.65,13.35-1.98,19.78-2.63,6.43-7.01,11.77-13.15,16.02s-14.31,7.37-24.52,9.36c-17.93,3.48-31.01,2.45-39.25-3.11s-13.86-13.57-16.83-24.04h.02Z"/>
        <path class="st1" d="M906.75,442.08l32.64-6.34,20.49,105.4-32.64,6.34-20.49-105.4h0Z"/>
        <path class="st1" d="M960.21,431.69l34.05-6.62,38.47,71.24,8.68-80.4,33.06-6.43-18.65,113.01-35.3,6.86-60.29-97.66h-.02Z"/>
        <path class="st1" d="M1092.83,405.91l87.28-16.97,4.38,22.5-54.64,10.62,3.26,16.75,50.69-9.85,4.18,21.5-50.69,9.85,4.04,20.78,56.22-10.93,4.64,23.87-88.86,17.27-20.49-105.4h-.01Z"/>
      </g>
    </g>
  </g>
  <g id="Generative_Object__x28_0_x2C__0_x29_">
    <g class="st0">
      <circle class="st4" cx="700" cy="500" r="392"/>
    </g>
    <g class="st17">
      <circle class="st7" cx="700" cy="500" r="350"/>
    </g>
    <g class="st16">
      <circle class="st5" cx="700" cy="500" r="315"/>
    </g>
    <g class="st13">
      <g class="st13">
        <path class="st14" d="M419.22,447.42l-8.25-41.9,9.76-1.92,22.96,25.07-5.15,1.01,11.27-31.81,9.76-1.92,8.37,41.87-10.89,2.14-5.1-25.29,1.85-.37-8.46,23.67-5.27,1.04-17.16-18.63,2.27-.45,4.98,25.32-10.95,2.16h.01Z"/>
      </g>
      <g class="st13">
        <path class="st14" d="M485.03,434.47l10.25-45.54,11.67-2.3,26.8,38.24-12.33,2.43-21.59-33.24,4.67-.92-7.38,38.94-12.09,2.38h0ZM493.54,424.34l1.33-9.34,20.47-4.03,4.77,8.14-26.57,5.23h0Z"/>
      </g>
      <g class="st13">
        <path class="st14" d="M546.53,422.37l13.31-29.04,1.6,8.45-22.5-21.44,13.35-2.63,14.44,14-5.67,1.18,7.87-18.46,12.81-2.52-12.79,27.88-1.65-8.38,23.64,22.2-13.65,2.69-14.79-14.81,5.45-1.07-7.89,19.27-13.53,2.66v.02h0Z"/>
      </g>
      <g class="st13">
        <path class="st15" d="M639.84,404.01l-8.25-41.9,19.15-3.77c3.83-.75,7.25-.79,10.27-.09,3.02.69,5.51,2.05,7.49,4.09,1.97,2.04,3.28,4.65,3.9,7.84.62,3.15.4,6.03-.67,8.62s-2.86,4.77-5.4,6.53c-2.53,1.76-5.72,3.02-9.55,3.77l-12.57,2.47,4.29-6,3.17,16.1-11.85,2.33h.02,0ZM648.77,386.83l-6.34-4.41,11.85-2.33c2.47-.49,4.21-1.39,5.22-2.71,1-1.32,1.32-2.93.94-4.85-.38-1.95-1.29-3.35-2.72-4.19s-3.38-1.01-5.85-.53l-11.85,2.33,4.2-6.48,4.56,23.16h-.01ZM665.75,398.91l-13.42-13.21,12.63-2.49,13.48,13.2-12.69,2.5h0Z"/>
      </g>
      <g class="st13">
        <path class="st15" d="M707.79,381.12l21.91-4.31,1.8,9.16-33.64,6.62-8.25-41.9,32.86-6.47,1.8,9.16-21.13,4.16,4.64,23.58h.01ZM703.7,364.77l19.45-3.83,1.74,8.86-19.45,3.83-1.74-8.86Z"/>
      </g>
      <g class="st13">
        <path class="st15" d="M746.79,382.96l10.25-45.54,11.67-2.3,26.8,38.24-12.33,2.43-21.59-33.24,4.67-.92-7.38,38.94-12.09,2.38h0ZM755.31,372.83l1.33-9.34,20.47-4.03,4.77,8.14-26.57,5.23h0Z"/>
      </g>
      <g class="st13">
        <path class="st15" d="M812.6,370.01l-8.25-41.9,11.85-2.33,6.4,32.5,19.99-3.93,1.85,9.4-31.84,6.27h0Z"/>
      </g>
      <g class="st13">
        <path class="st15" d="M871.76,358.36l-6.4-32.5-12.87,2.53-1.85-9.4,37.53-7.39,1.85,9.4-12.81,2.52,6.4,32.5-11.85,2.33h0Z"/>
      </g>
      <g class="st13">
        <path class="st15" d="M925.18,347.85l-3.49-17.72,4.16,6.58-24.89-27.62,12.51-2.46,17.99,20.02-7.24,1.43,9.12-25.36,11.49-2.26-12.51,34.98,1.23-7.64,3.49,17.72-11.85,2.33h0Z"/>
      </g>
    </g>
    <g>
      <polygon class="st22" points="646.7 803.37 666.29 834.95 703.48 833.76 678.96 860.44 693.02 895.82 657.7 881.6 627.66 905.01 631.43 867.12 600.5 848.24 636.58 839.13 646.7 803.37"/>
      <polygon class="st23" points="736.88 762.42 768.02 811.57 827.28 809.3 788.01 853.19 809.95 908.68 754.28 886.2 706.96 923.15 712.75 863.77 662.9 832.4 720.49 818.25 736.88 762.42"/>
      <polygon class="st24" points="834.85 776.93 854.44 808.51 891.64 807.32 867.11 833.99 881.17 869.38 845.85 855.16 815.81 878.57 819.58 840.67 788.65 821.79 824.73 812.68 834.85 776.93"/>
    </g>
    <g>
      <rect class="st12" x="151.15" y="413.5" width="1110" height="250" rx="38" ry="38" transform="translate(-89.78 144.63) rotate(-11)"/>
      <rect class="st6" x="189.15" y="451.5" width="1034" height="174" rx="24" ry="24" transform="translate(-89.78 144.63) rotate(-11)"/>
      <g class="st13">
        <path class="st14" d="M204.81,578.52l87.28-16.97,4.37,22.5-54.64,10.62,3.26,16.75,50.69-9.85,4.18,21.5-50.69,9.85,4.04,20.78,56.22-10.93,4.64,23.87-88.86,17.27-20.49-105.4h0Z"/>
        <path class="st14" d="M311.83,557.72l35.88-6.97,24.96,28.8,11.85-35.95,35.52-6.9-22.88,57.42,46.46,47.38-36.59,7.11-27.4-29.82-14.23,37.91-36.38,7.07,25.68-62-42.86-44.05h0Z"/>
        <path class="st14" d="M518.59,582.14l30.22,3.08c-.36,8.38-2.08,15.65-5.16,21.82-3.08,6.17-7.41,11.21-12.99,15.13s-13.09,6.8-22.53,8.63c-11.46,2.23-21.14,2.38-29.05.46s-15.31-6.55-22.22-13.91c-6.9-7.36-11.62-17.58-14.17-30.65-3.39-17.43-1.36-31.74,6.1-42.9,7.45-11.17,19.66-18.4,36.63-21.7,13.28-2.58,24.24-1.92,32.88,1.96,8.64,3.89,15.89,11.04,21.74,21.44l-27.51,11.99c-1.63-3.01-3.14-5.16-4.53-6.43-2.31-2.14-4.91-3.62-7.8-4.45-2.9-.83-5.98-.93-9.24-.29-7.38,1.43-12.46,5.5-15.24,12.2-2.12,4.98-2.26,12.19-.42,21.62,2.27,11.68,5.6,19.34,9.99,22.99,4.39,3.64,9.79,4.84,16.22,3.59,6.23-1.21,10.6-3.88,13.11-7.99,2.51-4.12,3.83-9.65,3.98-16.59h-.01Z"/>
        <path class="st14" d="M558.65,509.74l32.57-6.33,15.44,79.45,50.83-9.88,5.04,25.95-83.4,16.21-20.49-105.4h.01Z"/>
        <path class="st14" d="M729.45,476.54l32.5-6.32,12.21,62.8c1.21,6.23,1.38,12.29.52,18.2-.86,5.91-2.97,11.34-6.31,16.29s-7.12,8.7-11.35,11.26c-5.87,3.58-13.24,6.23-22.11,7.95-5.13,1-10.79,1.73-17,2.18-6.2.46-11.55.02-16.04-1.32s-8.8-3.64-12.95-6.92c-4.14-3.27-7.24-6.87-9.3-10.79-3.32-6.31-5.48-12.06-6.48-17.23l-12.21-62.8,32.5-6.32,12.5,64.29c1.12,5.75,3.58,9.93,7.4,12.54s8.55,3.37,14.21,2.27c5.61-1.09,9.7-3.54,12.26-7.34,2.57-3.8,3.28-8.63,2.15-14.47l-12.5-64.29v.02h0Z"/>
        <path class="st14" d="M799.35,536.15l30.61-7.96c1.65,4.9,3.76,8.47,6.33,10.71,4.18,3.62,9.39,4.82,15.62,3.6,4.65-.9,8.02-2.69,10.11-5.36,2.09-2.67,2.86-5.44,2.3-8.32-.53-2.73-2.2-4.94-5.02-6.63s-8.77-2.65-17.87-2.87c-14.91-.43-25.92-2.72-33.04-6.86-7.17-4.13-11.55-10.31-13.16-18.56-1.05-5.42-.48-10.84,1.72-16.27,2.2-5.43,6.19-10.13,11.96-14.11,5.77-3.98,14.14-7.04,25.11-9.17,13.47-2.62,24.22-2.11,32.27,1.52,8.04,3.64,13.8,10.79,17.26,21.45l-30.35,7.76c-1.74-4.59-4.12-7.7-7.15-9.35s-6.85-2.03-11.45-1.13c-3.79.74-6.48,2.09-8.09,4.07-1.6,1.98-2.18,4.12-1.74,6.42.33,1.68,1.41,3.03,3.25,4.07,1.8,1.09,5.7,1.68,11.68,1.76,14.83.3,25.63,1.42,32.4,3.36,6.77,1.94,12.01,4.97,15.72,9.07,3.71,4.1,6.12,9.03,7.24,14.78,1.31,6.76.65,13.35-1.98,19.78-2.63,6.43-7.01,11.77-13.15,16.02s-14.31,7.37-24.52,9.36c-17.93,3.48-31.01,2.45-39.25-3.11s-13.86-13.57-16.83-24.04h.02Z"/>
        <path class="st14" d="M906.75,442.08l32.64-6.34,20.49,105.4-32.64,6.34-20.49-105.4h0Z"/>
        <path class="st14" d="M960.21,431.69l34.05-6.62,38.47,71.24,8.68-80.4,33.06-6.43-18.65,113.01-35.3,6.86-60.29-97.66h-.02Z"/>
        <path class="st14" d="M1092.83,405.91l87.28-16.97,4.38,22.5-54.64,10.62,3.26,16.75,50.69-9.85,4.18,21.5-50.69,9.85,4.04,20.78,56.22-10.93,4.64,23.87-88.86,17.27-20.49-105.4h-.01Z"/>
      </g>
      <g class="st13">
        <path class="st1" d="M204.81,578.52l87.28-16.97,4.37,22.5-54.64,10.62,3.26,16.75,50.69-9.85,4.18,21.5-50.69,9.85,4.04,20.78,56.22-10.93,4.64,23.87-88.86,17.27-20.49-105.4h0Z"/>
        <path class="st1" d="M311.83,557.72l35.88-6.97,24.96,28.8,11.85-35.95,35.52-6.9-22.88,57.42,46.46,47.38-36.59,7.11-27.4-29.82-14.23,37.91-36.38,7.07,25.68-62-42.86-44.05h0Z"/>
        <path class="st1" d="M518.59,582.14l30.22,3.08c-.36,8.38-2.08,15.65-5.16,21.82-3.08,6.17-7.41,11.21-12.99,15.13s-13.09,6.8-22.53,8.63c-11.46,2.23-21.14,2.38-29.05.46s-15.31-6.55-22.22-13.91c-6.9-7.36-11.62-17.58-14.17-30.65-3.39-17.43-1.36-31.74,6.1-42.9,7.45-11.17,19.66-18.4,36.63-21.7,13.28-2.58,24.24-1.92,32.88,1.96,8.64,3.89,15.89,11.04,21.74,21.44l-27.51,11.99c-1.63-3.01-3.14-5.16-4.53-6.43-2.31-2.14-4.91-3.62-7.8-4.45-2.9-.83-5.98-.93-9.24-.29-7.38,1.43-12.46,5.5-15.24,12.2-2.12,4.98-2.26,12.19-.42,21.62,2.27,11.68,5.6,19.34,9.99,22.99,4.39,3.64,9.79,4.84,16.22,3.59,6.23-1.21,10.6-3.88,13.11-7.99,2.51-4.12,3.83-9.65,3.98-16.59h-.01Z"/>
        <path class="st1" d="M558.65,509.74l32.57-6.33,15.44,79.45,50.83-9.88,5.04,25.95-83.4,16.21-20.49-105.4h.01Z"/>
        <path class="st1" d="M729.45,476.54l32.5-6.32,12.21,62.8c1.21,6.23,1.38,12.29.52,18.2-.86,5.91-2.97,11.34-6.31,16.29s-7.12,8.7-11.35,11.26c-5.87,3.58-13.24,6.23-22.11,7.95-5.13,1-10.79,1.73-17,2.18-6.2.46-11.55.02-16.04-1.32s-8.8-3.64-12.95-6.92c-4.14-3.27-7.24-6.87-9.3-10.79-3.32-6.31-5.48-12.06-6.48-17.23l-12.21-62.8,32.5-6.32,12.5,64.29c1.12,5.75,3.58,9.93,7.4,12.54s8.55,3.37,14.21,2.27c5.61-1.09,9.7-3.54,12.26-7.34,2.57-3.8,3.28-8.63,2.15-14.47l-12.5-64.29v.02h0Z"/>
        <path class="st1" d="M799.35,536.15l30.61-7.96c1.65,4.9,3.76,8.47,6.33,10.71,4.18,3.62,9.39,4.82,15.62,3.6,4.65-.9,8.02-2.69,10.11-5.36,2.09-2.67,2.86-5.44,2.3-8.32-.53-2.73-2.2-4.94-5.02-6.63s-8.77-2.65-17.87-2.87c-14.91-.43-25.92-2.72-33.04-6.86-7.17-4.13-11.55-10.31-13.16-18.56-1.05-5.42-.48-10.84,1.72-16.27,2.2-5.43,6.19-10.13,11.96-14.11,5.77-3.98,14.14-7.04,25.11-9.17,13.47-2.62,24.22-2.11,32.27,1.52,8.04,3.64,13.8,10.79,17.26,21.45l-30.35,7.76c-1.74-4.59-4.12-7.7-7.15-9.35s-6.85-2.03-11.45-1.13c-3.79.74-6.48,2.09-8.09,4.07-1.6,1.98-2.18,4.12-1.74,6.42.33,1.68,1.41,3.03,3.25,4.07,1.8,1.09,5.7,1.68,11.68,1.76,14.83.3,25.63,1.42,32.4,3.36,6.77,1.94,12.01,4.97,15.72,9.07,3.71,4.1,6.12,9.03,7.24,14.78,1.31,6.76.65,13.35-1.98,19.78-2.63,6.43-7.01,11.77-13.15,16.02s-14.31,7.37-24.52,9.36c-17.93,3.48-31.01,2.45-39.25-3.11s-13.86-13.57-16.83-24.04h.02Z"/>
        <path class="st1" d="M906.75,442.08l32.64-6.34,20.49,105.4-32.64,6.34-20.49-105.4h0Z"/>
        <path class="st1" d="M960.21,431.69l34.05-6.62,38.47,71.24,8.68-80.4,33.06-6.43-18.65,113.01-35.3,6.86-60.29-97.66h-.02Z"/>
        <path class="st1" d="M1092.83,405.91l87.28-16.97,4.38,22.5-54.64,10.62,3.26,16.75,50.69-9.85,4.18,21.5-50.69,9.85,4.04,20.78,56.22-10.93,4.64,23.87-88.86,17.27-20.49-105.4h-.01Z"/>
      </g>
    </g>
  </g>
  <g class="st25">
    <line class="st3" x1="423.78" y1="772.77" x2="529.61" y2="751.23"/>
    <line class="st3" x1="913.73" y1="673.01" x2="1019.56" y2="651.46"/>
    <g class="st13">
      <path class="st15" d="M490.42,783.51c-3.26.66-6.48.89-9.66.69s-5.85-.75-8-1.66l2-9.05c2.01.77,4.26,1.29,6.74,1.56,2.48.26,4.88.16,7.19-.31,1.55-.32,2.77-.71,3.66-1.19s1.5-1,1.84-1.56.44-1.17.31-1.81c-.19-.91-.75-1.54-1.69-1.9-.94-.36-2.11-.58-3.51-.65-1.4-.07-2.93-.11-4.61-.13-1.68-.01-3.38-.12-5.1-.32s-3.33-.59-4.83-1.18c-1.5-.58-2.81-1.48-3.92-2.69-1.12-1.21-1.89-2.88-2.32-5-.49-2.39-.27-4.68.64-6.88s2.56-4.15,4.93-5.86c2.38-1.71,5.51-2.96,9.42-3.75,2.61-.53,5.24-.76,7.88-.69s5.06.48,7.26,1.21l-1.77,9.06c-2.1-.64-4.13-1.02-6.09-1.16-1.96-.13-3.81-.02-5.56.33-1.55.32-2.77.73-3.65,1.25s-1.48,1.08-1.79,1.7-.39,1.26-.25,1.95c.18.87.72,1.48,1.64,1.83.92.35,2.08.54,3.5.59,1.41.05,2.95.08,4.64.09,1.68.01,3.38.11,5.09.29s3.32.57,4.82,1.15,2.8,1.48,3.89,2.7c1.09,1.22,1.86,2.87,2.28,4.95.47,2.31.25,4.58-.66,6.79-.91,2.22-2.54,4.18-4.9,5.88s-5.51,2.96-9.45,3.76h.03,0Z"/>
      <path class="st15" d="M550.89,771.19c-3.18.65-6.22.74-9.12.26-2.9-.47-5.53-1.45-7.9-2.92s-4.36-3.34-5.97-5.62c-1.61-2.28-2.72-4.91-3.33-7.91s-.62-5.85-.03-8.58c.59-2.72,1.69-5.23,3.29-7.51s3.65-4.21,6.13-5.78,5.31-2.68,8.5-3.33c3.22-.66,6.27-.74,9.15-.26s5.5,1.46,7.85,2.93,4.34,3.35,5.97,5.62c1.63,2.27,2.75,4.91,3.35,7.9s.61,5.86,0,8.61c-.6,2.75-1.7,5.25-3.3,7.51-1.59,2.26-3.62,4.17-6.08,5.74s-5.3,2.68-8.52,3.33h.01ZM548.99,761.87c1.52-.31,2.87-.86,4.07-1.66s2.18-1.8,2.94-3,1.27-2.56,1.54-4.07c.26-1.51.22-3.12-.12-4.83-.35-1.74-.95-3.25-1.78-4.52s-1.83-2.31-3-3.12-2.46-1.34-3.88-1.61c-1.42-.26-2.88-.24-4.4.07s-2.87.86-4.07,1.66-2.18,1.8-2.94,3-1.28,2.55-1.54,4.04c-.27,1.5-.22,3.11.13,4.86.35,1.71.94,3.2,1.77,4.49s1.84,2.34,3.01,3.14c1.17.81,2.46,1.34,3.88,1.61,1.42.26,2.88.24,4.4-.07h-.01Z"/>
      <path class="st15" d="M596.36,761.11l-8.1-39.78,11.25-2.29,6.28,30.86,18.98-3.87,1.82,8.92-30.24,6.16h0Z"/>
      <path class="st15" d="M666.77,747.6c-5.87,1.2-10.79.52-14.74-2.03-3.95-2.55-6.53-6.78-7.73-12.69l-4.49-22.05,11.25-2.29,4.42,21.71c.69,3.41,1.86,5.72,3.51,6.92s3.64,1.57,5.99,1.09,4.04-1.59,5.06-3.34,1.19-4.33.5-7.74l-4.42-21.71,11.08-2.26,4.49,22.05c1.2,5.91.49,10.81-2.16,14.7-2.64,3.89-6.9,6.44-12.77,7.63h0Z"/>
      <path class="st15" d="M718.39,736.26l-6.28-30.86-12.22,2.49-1.82-8.92,35.63-7.26,1.82,8.92-12.16,2.48,6.28,30.86-11.25,2.29h0Z"/>
      <path class="st15" d="M763.62,727.05l-8.1-39.78,11.25-2.29,8.1,39.78-11.25,2.29Z"/>
      <path class="st15" d="M820.74,716.25c-3.18.65-6.22.74-9.12.26-2.9-.47-5.53-1.45-7.91-2.92-2.37-1.47-4.36-3.34-5.97-5.62-1.61-2.28-2.72-4.91-3.33-7.91s-.62-5.85-.03-8.58c.59-2.72,1.69-5.23,3.29-7.51,1.61-2.28,3.65-4.21,6.13-5.78s5.31-2.68,8.5-3.33c3.22-.66,6.27-.74,9.15-.26s5.5,1.46,7.85,2.93,4.34,3.35,5.97,5.62c1.63,2.27,2.75,4.91,3.35,7.9s.61,5.86,0,8.61c-.6,2.75-1.7,5.25-3.29,7.51-1.59,2.26-3.62,4.17-6.08,5.74s-5.3,2.68-8.52,3.33h.01ZM818.84,706.93c1.51-.31,2.87-.86,4.07-1.66s2.18-1.8,2.94-3,1.27-2.56,1.54-4.07c.26-1.51.22-3.12-.12-4.83-.35-1.74-.95-3.25-1.78-4.52s-1.83-2.31-3-3.12-2.46-1.34-3.88-1.61-2.88-.24-4.4.07-2.87.86-4.07,1.66-2.18,1.8-2.94,3-1.28,2.55-1.54,4.04c-.27,1.5-.22,3.11.13,4.86.35,1.71.94,3.2,1.77,4.49s1.84,2.34,3.01,3.14c1.17.81,2.46,1.34,3.88,1.61,1.41.26,2.88.24,4.4-.07h-.01Z"/>
      <path class="st15" d="M866.21,706.16l-8.1-39.78,9.26-1.89,27.33,22.02-4.38.89-5.39-26.48,11.03-2.25,8.1,39.78-9.26,1.89-27.33-22.02,4.38-.89,5.39,26.48-11.03,2.25h0Z"/>
      <path class="st15" d="M943.78,691.19c-3.26.66-6.48.9-9.66.69-3.18-.2-5.84-.75-8-1.66l2-9.05c2.01.77,4.26,1.29,6.74,1.56,2.48.26,4.88.16,7.19-.31,1.55-.32,2.77-.71,3.66-1.19.89-.48,1.5-1,1.84-1.56s.44-1.17.31-1.81c-.19-.91-.75-1.54-1.69-1.91-.94-.36-2.11-.58-3.5-.65-1.4-.07-2.93-.11-4.61-.13-1.68-.01-3.38-.12-5.1-.32s-3.33-.6-4.83-1.18-2.81-1.48-3.92-2.69c-1.12-1.21-1.89-2.88-2.32-5-.49-2.39-.27-4.68.64-6.88.91-2.2,2.56-4.15,4.93-5.86,2.38-1.71,5.51-2.96,9.42-3.75,2.61-.53,5.24-.76,7.88-.69,2.64.08,5.06.48,7.26,1.21l-1.77,9.06c-2.1-.64-4.14-1.02-6.1-1.16-1.96-.13-3.81-.02-5.56.33-1.55.32-2.77.73-3.65,1.25s-1.48,1.08-1.79,1.7-.39,1.26-.25,1.95c.18.87.73,1.48,1.64,1.83.92.35,2.08.54,3.49.59s2.96.08,4.64.09,3.38.11,5.09.3c1.71.18,3.32.57,4.82,1.15s2.8,1.48,3.89,2.7c1.1,1.22,1.86,2.87,2.28,4.95.47,2.31.25,4.58-.66,6.79-.91,2.22-2.54,4.18-4.9,5.88-2.36,1.7-5.5,2.96-9.44,3.76h.03,0Z"/>
    </g>
  </g>
  <g class="st13">
    <path class="st15" d="M545.42,750.89c-2.53.52-5.02.71-7.49.56s-4.54-.57-6.21-1.27l1.54-7.03c1.56.6,3.31,1,5.23,1.2s3.78.12,5.58-.25c1.2-.25,2.15-.56,2.84-.93s1.16-.78,1.43-1.21c.26-.44.34-.9.24-1.41-.15-.7-.58-1.2-1.32-1.47-.73-.28-1.64-.44-2.72-.5-1.08-.05-2.28-.08-3.58-.09-1.3,0-2.62-.09-3.96-.24-1.33-.15-2.58-.46-3.75-.9-1.17-.45-2.18-1.14-3.05-2.08s-1.47-2.23-1.81-3.88c-.38-1.85-.22-3.63.49-5.34.71-1.71,1.98-3.22,3.82-4.55s4.27-2.3,7.3-2.93c2.03-.42,4.06-.6,6.11-.55s3.93.36,5.64.93l-1.35,7.03c-1.63-.49-3.21-.79-4.73-.89-1.52-.1-2.96,0-4.31.27-1.21.25-2.15.57-2.83.97-.68.4-1.14.84-1.38,1.32s-.3.98-.19,1.51c.14.68.56,1.15,1.28,1.41.71.27,1.62.42,2.71.45,1.09.04,2.29.06,3.6.06s2.62.08,3.95.22c1.33.14,2.58.43,3.74.88,1.17.45,2.17,1.15,3.03,2.09.85.94,1.45,2.22,1.78,3.84.37,1.79.2,3.55-.5,5.27-.7,1.72-1.97,3.25-3.79,4.57-1.83,1.32-4.27,2.3-7.32,2.93h-.02Z"/>
    <path class="st15" d="M592.32,741.22c-2.47.51-4.83.58-7.08.22-2.25-.36-4.3-1.11-6.14-2.25s-3.39-2.59-4.64-4.35-2.12-3.81-2.59-6.13c-.48-2.32-.49-4.54-.04-6.66.45-2.11,1.3-4.06,2.54-5.83s2.83-3.27,4.75-4.49,4.12-2.09,6.59-2.6c2.5-.51,4.86-.59,7.1-.22,2.24.37,4.27,1.12,6.09,2.26,1.83,1.14,3.38,2.59,4.64,4.35,1.27,1.76,2.14,3.8,2.62,6.12s.49,4.55.02,6.68c-.46,2.13-1.31,4.08-2.54,5.83s-2.8,3.24-4.71,4.46c-1.91,1.22-4.11,2.09-6.61,2.6h0ZM590.83,733.99c1.17-.24,2.23-.67,3.16-1.29s1.69-1.4,2.28-2.33.98-1.99,1.19-3.16c.2-1.18.17-2.42-.11-3.75-.28-1.35-.74-2.52-1.39-3.5s-1.43-1.79-2.33-2.41c-.91-.62-1.91-1.04-3.01-1.24-1.1-.2-2.24-.18-3.41.06s-2.23.67-3.16,1.29-1.69,1.4-2.28,2.33-.99,1.98-1.19,3.14c-.21,1.16-.17,2.42.11,3.77.27,1.32.73,2.48,1.38,3.48s1.43,1.81,2.34,2.44,1.91,1.04,3.01,1.24c1.1.2,2.24.18,3.41-.06h0Z"/>
    <path class="st15" d="M627.58,733.31l-6.36-30.85,8.73-1.8,4.93,23.93,14.72-3.03,1.43,6.92-23.45,4.83h0Z"/>
    <path class="st15" d="M682.18,722.71c-4.55.94-8.37.42-11.44-1.55s-5.08-5.25-6.02-9.83l-3.52-17.1,8.73-1.8,3.47,16.84c.54,2.64,1.46,4.43,2.74,5.36,1.28.93,2.83,1.21,4.65.83s3.13-1.24,3.92-2.6.92-3.36.37-6l-3.47-16.84,8.59-1.77,3.52,17.1c.94,4.58.4,8.39-1.65,11.41-2.04,3.03-5.34,5.01-9.89,5.95h0Z"/>
    <path class="st15" d="M722.21,713.81l-4.93-23.93-9.48,1.95-1.43-6.92,27.63-5.69,1.43,6.92-9.43,1.94,4.93,23.93-8.73,1.8h0Z"/>
    <path class="st15" d="M757.29,706.58l-6.36-30.85,8.73-1.8,6.36,30.85-8.73,1.8Z"/>
    <path class="st15" d="M801.58,698.1c-2.47.51-4.83.58-7.08.22-2.25-.36-4.29-1.11-6.14-2.25-1.84-1.14-3.39-2.59-4.64-4.35-1.25-1.76-2.12-3.81-2.59-6.13-.48-2.32-.49-4.54-.04-6.65.45-2.11,1.3-4.06,2.54-5.83s2.83-3.27,4.75-4.49,4.12-2.09,6.59-2.6c2.5-.51,4.86-.59,7.1-.22,2.24.37,4.27,1.12,6.09,2.26,1.83,1.14,3.38,2.59,4.64,4.35,1.26,1.76,2.14,3.8,2.62,6.12s.48,4.55.02,6.68c-.46,2.13-1.31,4.08-2.54,5.83s-2.8,3.24-4.71,4.46c-1.91,1.22-4.11,2.09-6.61,2.6ZM800.09,690.87c1.17-.24,2.23-.67,3.16-1.29s1.69-1.4,2.28-2.33.98-1.99,1.19-3.16c.2-1.18.17-2.42-.11-3.75-.28-1.35-.74-2.52-1.39-3.5s-1.42-1.79-2.33-2.41c-.91-.62-1.91-1.04-3.01-1.24-1.1-.2-2.24-.18-3.41.06-1.18.24-2.23.67-3.16,1.29s-1.69,1.4-2.28,2.33-.99,1.98-1.19,3.14c-.2,1.16-.17,2.42.11,3.77.27,1.32.73,2.48,1.38,3.48s1.43,1.81,2.34,2.44,1.91,1.04,3.01,1.24c1.1.2,2.23.18,3.41-.06h0Z"/>
    <path class="st15" d="M836.84,690.19l-6.36-30.85,7.18-1.48,21.25,17.03-3.39.7-4.23-20.54,8.55-1.76,6.36,30.85-7.18,1.48-21.24-17.03,3.39-.7,4.23,20.54-8.55,1.76h-.01Z"/>
    <path class="st15" d="M897,678.44c-2.53.52-5.02.71-7.49.56s-4.54-.57-6.21-1.27l1.54-7.03c1.56.6,3.31,1,5.23,1.2s3.78.12,5.58-.25c1.21-.25,2.15-.56,2.84-.93s1.16-.78,1.43-1.21c.26-.44.34-.9.24-1.4-.14-.71-.58-1.2-1.31-1.48-.73-.28-1.64-.44-2.72-.5-1.08-.05-2.28-.08-3.58-.09-1.3,0-2.62-.09-3.96-.24-1.33-.15-2.58-.46-3.75-.9-1.16-.45-2.18-1.14-3.05-2.08s-1.47-2.23-1.81-3.88c-.38-1.85-.22-3.63.49-5.34.71-1.71,1.98-3.22,3.82-4.55s4.27-2.3,7.3-2.93c2.03-.42,4.07-.6,6.11-.55,2.05.05,3.93.36,5.64.93l-1.35,7.03c-1.63-.49-3.21-.79-4.73-.89-1.52-.1-2.96,0-4.31.27-1.21.25-2.15.57-2.83.97-.68.4-1.14.84-1.38,1.32s-.3.98-.19,1.51c.14.68.57,1.15,1.28,1.41.71.27,1.62.42,2.71.45,1.09.04,2.29.06,3.6.06s2.62.08,3.95.22c1.33.14,2.58.43,3.74.88,1.17.45,2.17,1.15,3.03,2.09.85.94,1.45,2.22,1.78,3.84.37,1.79.2,3.55-.5,5.27-.7,1.72-1.97,3.25-3.79,4.57s-4.26,2.3-7.32,2.93h-.03Z"/>
  </g>
</svg>