<?xml version="1.0" encoding="UTF-8"?>
<svg id="Layer_1" data-name="Layer 1" xmlns="http://www.w3.org/2000/svg" viewBox="0 0 289.7544 194.4487">
  <polygon points="289.5161 194.4487 289.6695 177.4546 0 188.2407 289.5161 194.4487"/>
  <g>
    <g>
      <polygon points="139.9136 0 157.8823 0 193.2964 45.4629 142.0269 47.1284 142.0269 36.1455 168.4536 36.1455 139.9136 0" fill="#d71920"/>
      <polygon points="152.5991 36.5635 169.5113 36.5635 139.9136 0 104.4995 45.0449 112.4282 56.3062 142.5557 20.647 152.5991 36.5635" fill="#f15b40"/>
      <polygon points="193.2964 45.4629 186.4253 56.3062 112.4282 56.3062 142.5557 20.229 152.8618 36.6753 142.8198 45.8779 193.2964 45.4629" fill="#9e0b0f"/>
    </g>
    <g>
      <polygon points="193.2964 70.7065 123.5884 69.5552 112.6182 58.3936 187.2388 59.3477 193.2964 70.7065" fill="#d71920"/>
      <polygon points="123.5884 69.5552 112.6182 58.3936 105.3579 73.5259 116.5371 83.9277 123.5884 69.5552" fill="#f15b40"/>
      <polygon points="193.2964 70.7065 186.7749 83.9277 116.5371 83.9277 123.5884 69.5552 193.2964 70.7065" fill="#9e0b0f"/>
    </g>
    <g>
      <polygon points="192.44 94.3809 122.731 93.5356 111.7622 85.3628 186.3823 86.0605 192.44 94.3809" fill="#d71920"/>
      <polygon points="122.731 93.5356 111.7622 85.3628 104.4995 96.4468 115.6812 104.062 122.731 93.5356" fill="#f15b40"/>
      <polygon points="192.44 94.3809 185.9155 104.062 115.6812 104.062 122.731 93.5356 192.44 94.3809" fill="#9e0b0f"/>
    </g>
  </g>
  <g>
    <path d="M91.7354,103.8774h-27.6231v-55.8491l-17.5747,21.2227-18.9971-21.502v56.1284H1.4732V3.4888h24.2514l21.0093,25.83L68.2622,3.4888h23.4732v100.3886Z"/>
    <path d="M289.2476,103.8774h-30.6065l-12.4502-29.1811-14.1357,29.1811h-27.8828l24.9004-51.3813L208.4517,3.4888h29.958l9.9863,27.645,12.5791-27.645h27.624l-21.6582,49.8452,22.3067,50.5434Z"/>
  </g>
  <g>
    <path d="M1.4346,111.7769c2.2515-.3672,5.5596-.6426,9.3267-.6426,4.5947,0,7.8105.6885,10.0161,2.4341,1.8833,1.4697,2.8945,3.6743,2.8945,6.5219,0,3.9038-2.8027,6.6138-5.4678,7.5782v.1377c2.1597.8725,3.354,2.8935,4.1353,5.7412.9648,3.5366,1.8838,7.5781,2.4809,8.7724h-7.1674c-.4595-.9189-1.2403-3.3989-2.1133-7.2109-.8731-3.9038-2.2056-4.9141-5.0996-4.9605h-2.0679v12.1714H1.4346v-30.5429ZM8.3721,125.0967h2.7568c3.4917,0,5.5591-1.7456,5.5591-4.4556,0-2.8013-1.9297-4.271-5.1455-4.271-1.7002,0-2.665.0918-3.1704.2295v8.4971Z"/>
    <path d="M74.6738,129.23h-11.394v7.3486h12.7266v5.7412h-19.7105v-30.956h19.0669v5.7412h-12.083v6.4297h11.394v5.6953Z"/>
    <path d="M115.5684,134.374l-2.2056,7.9458h-7.2129l9.4185-30.956h9.1889l9.648,30.956h-7.5806l-2.3891-7.9458h-8.8672ZM123.4248,129.1382l-1.9297-6.5679c-.5512-1.8369-1.1025-4.1333-1.562-5.9707h-.0918c-.4594,1.8374-.9189,4.1797-1.4243,5.9707l-1.8379,6.5679h6.8457Z"/>
    <path d="M166.1109,111.3638h6.9834v25.0771h12.3134v5.8789h-19.2968v-30.956Z"/>
    <path d="M218.354,117.2427h-8.3613v-5.8789h23.7988v5.8789h-8.4541v25.0771h-6.9834v-25.0771Z"/>
    <path d="M272.5708,142.3198v-12.6762l-9.7861-18.2798h8.041l3.124,7.4404c.9649,2.2505,1.6533,3.9038,2.3887,5.9248h.0918c.6894-1.9292,1.4248-3.7202,2.3437-5.9248l3.1241-7.4404h7.8564l-10.1992,18.0498v12.9062h-6.9844Z"/>
  </g>
  <g>
    <path d="M2.7027,166.8481c1.124.5938,2.9228,1.1885,4.75,1.1885,1.9672,0,3.0073-.8203,3.0073-2.0654,0-1.1885-.8994-1.8672-3.1758-2.6592-3.1479-1.1318-5.228-2.8857-5.228-5.6582,0-3.2529,2.7265-5.7148,7.167-5.7148,2.1645,0,3.7104.4248,4.8344.9619l-.9555,3.4521c-.731-.3681-2.1079-.9062-3.9351-.9062-1.855,0-2.7544.8779-2.7544,1.8388,0,1.2168,1.0401,1.7549,3.5137,2.6885,3.3442,1.2442,4.8901,2.9981,4.8901,5.6856,0,3.1972-2.417,5.9131-7.6167,5.9131-2.164,0-4.3003-.5948-5.3681-1.1885l.8711-3.5362Z"/>
    <path d="M36.4829,161.5581c0,6.2803-3.7383,10.043-9.3032,10.043-5.5933,0-8.9097-4.2725-8.9097-9.7324,0-5.7139,3.6538-9.9864,9.2188-9.9864,5.8183,0,8.9941,4.3858,8.9941,9.6758ZM22.7949,161.7847c0,3.7617,1.7427,6.3925,4.6099,6.3925,2.8945,0,4.5532-2.7714,4.5532-6.4775,0-3.4521-1.602-6.3935-4.5532-6.3935-2.9233,0-4.6099,2.7724-4.6099,6.4785Z"/>
    <path d="M40.7217,152.2222h4.272v15.4463h7.5327v3.6211h-11.8047v-19.0674Z"/>
    <path d="M59.8589,152.2222v10.9482c0,3.3096,1.2647,4.9785,3.4287,4.9785,2.2486,0,3.4854-1.584,3.4854-4.9785v-10.9482h4.2724v10.6933c0,5.8848-2.9516,8.6856-7.8984,8.6856-4.7778,0-7.5606-2.6875-7.5606-8.7422v-10.6367h4.2725Z"/>
    <path d="M79.8374,155.8433h-5.1157v-3.6211h14.5596v3.6211h-5.1719v15.4463h-4.272v-15.4463Z"/>
    <path d="M97.2593,152.2222v19.0674h-4.272v-19.0674h4.272Z"/>
    <path d="M119.7139,161.5581c0,6.2803-3.7383,10.043-9.3032,10.043-5.5933,0-8.9097-4.2725-8.9097-9.7324,0-5.7139,3.6538-9.9864,9.2187-9.9864,5.8184,0,8.9942,4.3858,8.9942,9.6758ZM106.0259,161.7847c0,3.7617,1.7427,6.3925,4.6094,6.3925,2.895,0,4.5537-2.7714,4.5537-6.4775,0-3.4521-1.6021-6.3935-4.5537-6.3935-2.9229,0-4.6094,2.7724-4.6094,6.4785Z"/>
    <path d="M123.9243,171.2896v-19.0674h5.003l3.935,6.9873c1.1245,2.0088,2.2202,4.3857,3.0918,6.5351h.0562c-.253-2.5175-.3374-5.0918-.3374-7.9775v-5.5449h3.935v19.0674h-4.497l-4.0474-7.3555c-1.1245-2.0371-2.3892-4.4981-3.2886-6.7324h-.1123c.1406,2.5459.1968,5.2334.1968,8.3447v5.7432h-3.9351Z"/>
    <path d="M144.8589,166.8481c1.124.5938,2.9229,1.1885,4.75,1.1885,1.9673,0,3.0078-.8203,3.0078-2.0654,0-1.1885-.8999-1.8672-3.1763-2.6592-3.1479-1.1318-5.228-2.8857-5.228-5.6582,0-3.2529,2.7266-5.7148,7.167-5.7148,2.1641,0,3.71.4248,4.835.9619l-.9561,3.4521c-.7304-.3681-2.1084-.9062-3.935-.9062-1.855,0-2.7544.8779-2.7544,1.8388,0,1.2168,1.04,1.7549,3.5136,2.6885,3.3448,1.2442,4.8907,2.9981,4.8907,5.6856,0,3.1972-2.417,5.9131-7.6172,5.9131-2.1641,0-4.3003-.5948-5.3682-1.1885l.8711-3.5362Z"/>
    <path d="M167.7573,158.7837h2.8018v10.1309h4.9395v2.375h-7.7413v-12.5059Z"/>
    <path d="M178.5786,161.1587h-3.3545v-2.375h9.5479v2.375h-3.3916v10.1309h-2.8018v-10.1309Z"/>
    <path d="M187.19,158.9692c1.0322-.167,2.3779-.2783,3.7783-.2783,2.3779,0,3.9258.4453,5.1055,1.336,1.291.9648,2.1015,2.5048,2.1015,4.7128,0,2.3936-.8662,4.045-2.0459,5.0655-1.3086,1.0947-3.3174,1.6142-5.751,1.6142-1.456,0-2.5068-.0927-3.1884-.1855v-12.2647ZM189.9917,169.1558c.2393.0556.6446.0556.9766.0556,2.5625.0186,4.2392-1.3916,4.2392-4.3789,0-2.5976-1.5107-3.9707-3.9443-3.9707-.6084,0-1.0322.0557-1.2715.1113v8.1827Z"/>
    <path d="M199.9116,169.7866c0-1.0205.6817-1.7256,1.6582-1.7256.959,0,1.6231.6866,1.6407,1.7256,0,.9834-.6631,1.7071-1.6768,1.7071-.9404,0-1.6221-.7237-1.6221-1.7071Z"/>
  </g>
  <g>
    <path d="M217.2486,160.6177c.5097-.1055,1.5293-.211,2.5097-.211,1.1856,0,1.9112.1358,2.5488.5723.5987.376,1.0186,1.0674,1.0186,2.001,0,.8877-.4453,1.7148-1.4141,2.1513v.0303c.9815.3008,1.708,1.1885,1.708,2.4824,0,.9327-.3574,1.6543-.8925,2.1661-.6241.5869-1.669.9179-3.376.9179-.9561,0-1.669-.0752-2.1025-.1504v-9.9599ZM219.1724,164.4995h.6377c1.0312,0,1.5664-.4971,1.5664-1.249,0-.7676-.4971-1.1738-1.376-1.1738-.4326,0-.6748.0302-.8281.0605v2.3623ZM219.1724,168.9976c.1914.0302.4209.0302.7519.0302.8789,0,1.6563-.4062,1.6563-1.4746,0-1.0078-.7774-1.414-1.7451-1.414h-.6631v2.8584Z"/>
    <path d="M225.2486,160.6177c.624-.1201,1.5419-.211,2.5869-.211,1.2734,0,2.166.2256,2.7773.7979.5225.4814.8027,1.2031.8027,2.1357,0,1.2793-.7773,2.167-1.5166,2.4825v.0459c.5987.2851.9307.9472,1.1465,1.8798.2676,1.1592.5225,2.4825.6885,2.8741h-1.9873c-.1279-.3008-.3447-1.1133-.5869-2.3623-.2412-1.2784-.6113-1.6094-1.4141-1.625h-.5732v3.9873h-1.9238v-10.0049ZM227.1724,164.981h.7646c.9688,0,1.542-.5723,1.542-1.46,0-.918-.5351-1.3994-1.4277-1.3994-.4707,0-.7383.0303-.8789.0752v2.7842Z"/>
    <path d="M240.9185,165.4468c0,3.3398-1.6944,5.3408-4.2178,5.3408-2.5352,0-4.0381-2.2715-4.0381-5.1748,0-3.0391,1.6563-5.3115,4.1787-5.3115,2.6377,0,4.0772,2.332,4.0772,5.1455ZM234.7134,165.5679c0,2.0009.79,3.3994,2.0898,3.3994,1.3125,0,2.0635-1.4736,2.0635-3.4453,0-1.835-.7256-3.4004-2.0635-3.4004-1.3252,0-2.0898,1.4746-2.0898,3.4463Z"/>
    <path d="M242.4976,160.4819h1.9238v4.4834h.0254c.1914-.3906.3955-.7519.5986-1.1132l1.9375-3.3702h2.3946l-2.8409,4.3184,2.9815,5.8223h-2.2549l-2.1152-4.378-.7266,1.0684v3.3096h-1.9238v-10.1407Z"/>
    <path d="M255.7339,166.3345h-3.1601v2.4072h3.5292v1.8809h-5.4658v-10.1407h5.2881v1.8809h-3.3515v2.1064h3.1601v1.8653Z"/>
    <path d="M257.7329,160.6177c.6241-.1201,1.542-.211,2.5869-.211,1.2735,0,2.1661.2256,2.7774.7979.5224.4814.8027,1.2031.8027,2.1357,0,1.2793-.7773,2.167-1.5166,2.4825v.0459c.5987.2851.9307.9472,1.1465,1.8798.2676,1.1592.5225,2.4825.6885,2.8741h-1.9873c-.128-.3008-.3447-1.1133-.5869-2.3623-.2412-1.2784-.6114-1.6094-1.4141-1.625h-.5732v3.9873h-1.9239v-10.0049ZM259.6568,164.981h.7646c.9688,0,1.542-.5723,1.542-1.46,0-.918-.5352-1.3994-1.4277-1.3994-.4707,0-.7383.0303-.8789.0752v2.7842Z"/>
    <path d="M267.7075,168.02l-.6113,2.6026h-2l2.6113-10.1407h2.5489l2.6757,10.1407h-2.1025l-.6621-2.6026h-2.46ZM269.8863,166.3042l-.5352-2.1514c-.1523-.6015-.3057-1.3535-.4326-1.956h-.0254c-.1279.6025-.2549,1.3691-.3955,1.956l-.5098,2.1514h1.8985Z"/>
    <path d="M281.2251,170.1558c-.5986.2412-1.7324.5722-2.8662.5722-1.5674,0-2.7012-.4668-3.4912-1.3545-.7773-.8877-1.21-2.2109-1.21-3.7011.0127-3.3702,2.0889-5.2959,4.9053-5.2959,1.1084,0,1.9619.2558,2.3818.4814l-.4072,1.8506c-.4717-.2559-1.0449-.4356-1.9873-.4356-1.6182,0-2.8545,1.0674-2.8545,3.2793,0,2.1065,1.1211,3.3252,2.7139,3.3252.4336,0,.79-.0605.9433-.1357v-2.1357h-1.3251v-1.7911h3.1972v5.3409Z"/>
    <path d="M288.1548,166.3345h-3.1602v2.4072h3.5293v1.8809h-5.4658v-10.1407h5.2881v1.8809h-3.3516v2.1064h3.1602v1.8653Z"/>
  </g>
  <path d="M205.5816,170.8472v-3.003h3.7177v3.003c0,1.1035-.2422,1.9941-.7255,2.6728-.4834.6787-1.251,1.2041-2.3028,1.5752l-.9072-1.1279c.6894-.2442,1.1973-.6035,1.5234-1.0762.3262-.4746.5078-1.1553.544-2.0439h-1.8496Z"/>
</svg>